HIERARCHY
ROOT Hips
{
  OFFSET -1.00283 91.6471 -3.20329
  CHANNELS 6 Xposition Yposition Zposition Zrotation Xrotation Yrotation
  JOINT LeftHip
  {
    OFFSET 7.742 0 0
    CHANNELS 6 Xposition Yposition Zposition Zrotation Xrotation Yrotation
    JOINT LeftKnee
    {
      OFFSET 0 -41.6894 0
      CHANNELS 6 Xposition Yposition Zposition Zrotation Xrotation Yrotation
      JOINT LeftAnkle
      {
        OFFSET 0 -40.5157 0
        CHANNELS 6 Xposition Yposition Zposition Zrotation Xrotation Yrotation
        End Site
        {
          OFFSET 0 -7.04228 0
        }
      }
    }
  }
  JOINT RightHip
  {
    OFFSET -7.742 0 0
    CHANNELS 6 Xposition Yposition Zposition Zrotation Xrotation Yrotation
    JOINT RightKnee
    {
      OFFSET 0 -41.6894 0
      CHANNELS 6 Xposition Yposition Zposition Zrotation Xrotation Yrotation
      JOINT RightAnkle
      {
        OFFSET 0 -40.5157 0
        CHANNELS 6 Xposition Yposition Zposition Zrotation Xrotation Yrotation
        End Site
        {
          OFFSET 0 -7.04228 0
        }
      }
    }
  }
  JOINT Chest
  {
    OFFSET 0 12.9605 0
    CHANNELS 6 Xposition Yposition Zposition Zrotation Xrotation Yrotation
    JOINT Chest2
    {
      OFFSET 0 14.8294 0
      CHANNELS 6 Xposition Yposition Zposition Zrotation Xrotation Yrotation
      JOINT LeftCollar
      {
        OFFSET 2.39257 9.45743 3.97257
        CHANNELS 6 Xposition Yposition Zposition Zrotation Xrotation Yrotation
        JOINT LeftShoulder
        {
          OFFSET 13.114 0 0
          CHANNELS 6 Xposition Yposition Zposition Zrotation Xrotation Yrotation
          JOINT LeftElbow
          {
            OFFSET 0 -27.2663 0
            CHANNELS 6 Xposition Yposition Zposition Zrotation Xrotation Yrotation
            JOINT LeftWrist
            {
              OFFSET 0 -22.1651 0
              CHANNELS 6 Xposition Yposition Zposition Zrotation Xrotation Yrotation
              End Site
              {
                OFFSET 0 -16.6351 0
              }
            }
          }
        }
      }
      JOINT RightCollar
      {
        OFFSET -2.39257 9.45743 3.97257
        CHANNELS 6 Xposition Yposition Zposition Zrotation Xrotation Yrotation
        JOINT RightShoulder
        {
          OFFSET -13.6783 0 0
          CHANNELS 6 Xposition Yposition Zposition Zrotation Xrotation Yrotation
          JOINT RightElbow
          {
            OFFSET 0 -25.0091 0
            CHANNELS 6 Xposition Yposition Zposition Zrotation Xrotation Yrotation
            JOINT RightWrist
            {
              OFFSET 0 -22.1651 0
              CHANNELS 6 Xposition Yposition Zposition Zrotation Xrotation Yrotation
              End Site
              {
                OFFSET 0 -16.116 0
              }
            }
          }
        }
      }
      JOINT Neck
      {
        OFFSET 0 9.14143 0
        CHANNELS 6 Xposition Yposition Zposition Zrotation Xrotation Yrotation
        JOINT Head
        {
          OFFSET 0 11.7146 0
          CHANNELS 6 Xposition Yposition Zposition Zrotation Xrotation Yrotation
          End Site
          {
            OFFSET 0 9.34459 0
          }
        }
      }
    }
  }
}
MOTION
Frames:	12
Frame Time:	0.00833333
0.800667 91.7933 3.74481 0.0617956 -3.81379 1.728 7.742 0 0 0.479476 11.1038 1.90829 0 -41.6894 1.00237e-015 -2.56056 9.89792 -0.985703 1.00237e-015 -40.5157 0 2.83343 -16.2525 5.83737 -7.742 1.6038e-014 0 -0.981764 13.3527 5.06735 0 -41.6894 -2.00475e-015 4.16345 5.70159 3.02421 1.00237e-015 -40.5157 0 -6.38709 -13.7856 -12.7866 1.25297e-016 12.9605 0 -0.168148 -3.43719 -0.625005 6.26483e-017 14.8294 2.00475e-015 1.39564 0.1802 -0.898663 2.39257 9.45743 3.97257 29.2449 1.16522 4.7075 13.114 1.6038e-014 0 59.6353 1.2002 5.32957 -1.6038e-014 -27.2663 -1.20285e-014 1.02582 -4.91733e-006 -5.82208 0 -22.1651 0 5.61729 3.25306 -0.0784335 -2.39257 9.45743 3.97257 -33.6359 0.517466 -2.25863 -13.6783 4.81139e-014 4.00949e-015 -55.1756 2.83576 -3.41074 1.6038e-014 -25.0091 0 -1.23627 -1.25645 1.87527 1.6038e-014 -22.1651 0 -1.71884 6.35194 0.0730126 -5.01186e-016 9.14143 -2.00475e-015 -2.97267 24.8497 2.06017 2.50593e-016 11.7146 8.01898e-015 1.05584 -16.0331 0.56243 
0.784523 91.792 3.75772 0.0653763 -3.8082 1.70662 7.742 -1.6038e-014 0 0.482363 11.1071 1.88975 2.00475e-015 -41.6894 0 -2.56082 9.89872 -0.973068 0 -40.5157 -2.00475e-015 2.84108 -16.2539 5.8542 -7.742 0 0 -0.97842 13.3629 5.05438 0 -41.6894 0 4.15678 5.6816 3.05113 0 -40.5157 2.00475e-015 -6.38018 -13.7768 -12.7753 2.50593e-016 12.9605 0 -0.14277 -3.44968 -0.625013 -6.26483e-017 14.8294 -2.00475e-015 1.35444 0.138887 -0.891456 2.39257 9.45743 3.97257 29.2386 1.16654 4.71362 13.114 3.20759e-014 0 59.6047 1.20632 5.36251 -3.20759e-014 -27.2663 0 0.995989 -4.91734e-006 -5.82583 -1.6038e-014 -22.1651 0 5.55664 3.24423 -0.0762832 -2.39257 9.45743 3.97257 -33.6208 0.516643 -2.25698 -13.6783 1.6038e-014 0 -55.1511 2.82096 -3.41596 1.6038e-014 -25.0091 -4.00949e-015 -1.21936 -1.27742 1.86897 0 -22.1651 0 -1.73969 6.36214 0.0743363 0 9.14143 4.00949e-015 -0.976641 24.7092 0.951906 2.50593e-016 11.7146 -8.01898e-015 -1.37823 -15.7052 0.64602 
0.768413 91.7907 3.77057 0.0687997 -3.80187 1.68528 7.742 1.6038e-014 -2.00475e-015 0.485555 11.1094 1.87085 -2.00475e-015 -41.6894 0 -2.56125 9.90002 -0.961423 1.00237e-015 -40.5157 2.00475e-015 2.84926 -16.2551 5.87211 -7.742 0 0 -0.974872 13.3725 5.03969 -1.00237e-015 -41.6894 0 4.14982 5.6615 3.07957 -5.01186e-016 -40.5157 4.00949e-015 -6.37326 -13.7678 -12.764 0 12.9605 0 -0.116891 -3.46255 -0.625022 0 14.8294 -2.00475e-015 1.31277 0.0964731 -0.884153 2.39257 9.45743 3.97257 29.2326 1.1678 4.71946 13.114 1.6038e-014 -4.00949e-015 59.5738 1.21282 5.39433 0 -27.2663 8.01898e-015 0.964848 -4.91735e-006 -5.82863 1.6038e-014 -22.1651 4.00949e-015 5.49602 3.23686 -0.0741967 -2.39257 9.45743 3.97257 -33.6058 0.51595 -2.25576 -13.6783 3.20759e-014 0 -55.1258 2.80624 -3.42082 0 -25.0091 0 -1.20176 -1.29884 1.85751 0 -22.1651 8.01898e-015 -1.76424 6.37064 0.075844 -5.01186e-016 9.14143 2.00475e-015 1.171 24.5164 -0.251419 -1.00237e-015 11.7146 0 -3.99945 -15.3121 0.726271 
0.752237 91.7894 3.78353 0.0725503 -3.79702 1.66386 7.742 0 0 0.488143 11.1138 1.85267 -2.00475e-015 -41.6894 1.00237e-015 -2.56133 9.9003 -0.947797 2.00475e-015 -40.5157 0 2.85641 -16.2565 5.88786 -7.742 -1.6038e-014 2.00475e-015 -0.971716 13.3833 5.02842 0 -41.6894 0 4.14349 5.64164 3.10498 -1.00237e-015 -40.5157 2.00475e-015 -6.36636 -13.7593 -12.7527 2.50593e-016 12.9605 2.00475e-015 -0.0920152 -3.47468 -0.62503 0 14.8294 2.00475e-015 1.27208 0.0562606 -0.877045 2.39257 9.45743 3.97257 29.226 1.16918 4.72585 13.114 1.6038e-014 4.00949e-015 59.5434 1.21855 5.42838 0 -27.2663 4.00949e-015 0.936327 -4.91736e-006 -5.83333 0 -22.1651 0 5.43534 3.22656 -0.0719827 -2.39257 9.45743 3.97257 -33.5906 0.514995 -2.25368 -13.6783 3.20759e-014 0 -55.102 2.79134 -3.42639 0 -25.0091 0 -1.18557 -1.31937 1.85637 1.6038e-014 -22.1651 0 -1.78138 6.38256 0.0769837 0 9.14143 -4.00949e-015 2.99642 24.4038 -1.25679 2.00475e-015 11.7146 0 -6.24935 -15.0494 0.812466 
0.735892 91.788 3.79672 0.0771095 -3.7959 1.64225 7.742 0 -2.00475e-015 0.489221 11.1236 1.83624 0 -41.6894 0 -2.56056 9.89805 -0.92922 0 -40.5157 4.00949e-015 2.86096 -16.2584 5.8982 -7.742 0 0 -0.969549 13.3969 5.02567 0 -41.6894 0 4.13872 5.62236 3.12282 -5.01186e-016 -40.5157 -2.00475e-015 -6.35951 -13.7519 -12.741 1.25297e-016 12.9605 0 -0.0696475 -3.48495 -0.625037 0 14.8294 0 1.23383 0.0215515 -0.870427 2.39257 9.45743 3.97257 29.2178 1.17084 4.7336 13.114 1.6038e-014 0 59.5143 1.22234 5.46803 1.6038e-014 -27.2663 0 0.914355 -4.91737e-006 -5.8428 1.6038e-014 -22.1651 4.00949e-015 5.37452 3.20891 -0.0694499 -2.39257 9.45743 3.97257 -33.5746 0.513384 -2.24947 -13.6783 1.6038e-014 -4.00949e-015 -55.0821 2.77597 -3.43374 0 -25.0091 -4.00949e-015 -1.17286 -1.3377 1.88102 1.6038e-014 -22.1651 -4.00949e-015 -1.78 6.40306 0.0772037 5.01186e-016 9.14143 0 4.03706 24.5111 -1.77589 -2.00475e-015 11.7146 8.01898e-015 -7.56838 -15.1129 0.914137 
0.71931 91.7864 3.81027 0.0830711 -3.79985 1.61982 7.742 -1.6038e-014 2.00475e-015 0.487465 11.1412 1.82194 0 -41.6894 0 -2.55793 9.89159 -0.902376 -1.00237e-015 -40.5157 2.00475e-015 2.86143 -16.2607 5.90008 -7.742 0 0 -0.969072 13.4141 5.03504 -1.00237e-015 -41.6894 -2.00475e-015 4.13613 5.60416 3.1287 -5.01186e-016 -40.5157 0 -6.35176 -13.7467 -12.727 2.50593e-016 12.9605 0 -0.0514469 -3.49175 -0.625041 0 14.8294 2.00475e-015 1.19962 -0.00755053 -0.864156 2.39257 9.45743 3.97257 29.2071 1.1728 4.74292 13.114 3.20759e-014 0 59.486 1.22351 5.51832 1.6038e-014 -27.2663 0 0.901764 -4.91737e-006 -5.86203 0 -22.1651 -4.00949e-015 5.30924 3.17879 -0.0662509 -2.39257 9.45743 3.97257 -33.5577 0.510982 -2.24271 -13.6783 6.41519e-014 -8.01898e-015 -55.0665 2.75889 -3.44621 -1.6038e-014 -25.0091 4.00949e-015 -1.16522 -1.35431 1.94113 1.6038e-014 -22.1651 4.00949e-015 -1.74339 6.43463 0.0755862 0 9.14143 0 4.002 25.0483 -1.59368 0 11.7146 0 -7.62421 -15.781 1.07102 
0.702559 91.7848 3.82406 0.0900162 -3.80743 1.59682 7.742 0 0 0.483722 11.1643 1.80917 0 -41.6894 3.00712e-015 -2.554 9.88216 -0.869691 -1.00237e-015 -40.5157 0 2.859 -16.2633 5.89597 -7.742 1.6038e-014 0 -0.969801 13.4339 5.05305 1.00237e-015 -41.6894 0 4.13509 5.58672 3.1261 0 -40.5157 2.00475e-015 -6.34342 -13.7429 -12.7114 1.25297e-016 12.9605 0 -0.0361915 -3.49611 -0.625044 -1.25297e-016 14.8294 4.00949e-015 1.16829 -0.0325476 -0.858148 2.39257 9.45743 3.97257 29.1946 1.17498 4.75337 13.114 0 0 59.4582 1.22281 5.57608 -1.6038e-014 -27.2663 -8.01898e-015 0.895863 -4.91738e-006 -5.88811 1.6038e-014 -22.1651 0 5.24099 3.13988 -0.0625867 -2.39257 9.45743 3.97257 -33.54 0.508009 -2.23409 -13.6783 3.20759e-014 0 -55.0542 2.74064 -3.46221 -1.6038e-014 -25.0091 4.00949e-015 -1.16117 -1.36961 2.02659 0 -22.1651 4.00949e-015 -1.68206 6.47414 0.0726822 -5.01186e-016 9.14143 2.00475e-015 3.17897 25.8859 -0.903882 2.00475e-015 11.7146 -8.01898e-015 -6.76964 -16.8737 1.26775 
0.685743 91.7832 3.83794 0.0969063 -3.81668 1.57449 7.742 1.6038e-014 2.00475e-015 0.480354 11.1892 1.79756 0 -41.6894 -1.00237e-015 -2.55057 9.87258 -0.83681 0 -40.5157 -4.00949e-015 2.85615 -16.2663 5.89087 -7.742 -1.6038e-014 0 -0.970546 13.4555 5.07425 0 -41.6894 0 4.13463 5.56918 3.1223 -1.00237e-015 -40.5157 -6.01424e-015 -6.33636 -13.7389 -12.6984 1.25297e-016 12.9605 0 -0.0210653 -3.5009 -0.625047 0 14.8294 0 1.13706 -0.0525463 -0.852787 2.39257 9.45743 3.97257 29.182 1.1774 4.76482 13.114 0 0 59.4323 1.2212 5.63232 0 -27.2663 0 0.892299 -4.91738e-006 -5.91193 0 -22.1651 0 5.17837 3.10092 -0.0590886 -2.39257 9.45743 3.97257 -33.5221 0.504602 -2.22405 -13.6783 3.20759e-014 0 -55.0445 2.7236 -3.47542 0 -25.0091 -4.00949e-015 -1.15818 -1.38222 2.12325 1.6038e-014 -22.1651 -4.00949e-015 -1.6257 6.51834 0.0701424 5.01186e-016 9.14143 0 1.98802 26.6556 -0.0370398 0 11.7146 -8.01898e-015 -5.47934 -17.8991 1.42923 
0.668967 91.7816 3.85173 0.102707 -3.82568 1.55408 7.742 -1.6038e-014 -2.00475e-015 0.479715 11.2119 1.78676 -2.00475e-015 -41.6894 -1.00237e-015 -2.54945 9.86567 -0.809373 -1.00237e-015 -40.5157 0 2.85537 -16.2697 5.88978 -7.742 -1.6038e-014 0 -0.970113 13.4781 5.09314 1.00237e-015 -41.6894 0 4.13377 5.55068 3.12458 0 -40.5157 0 -6.33246 -13.733 -12.692 2.50593e-016 12.9605 0 -0.00325211 -3.50899 -0.625053 1.25297e-016 14.8294 2.00475e-015 1.10321 -0.0666536 -0.848456 2.39257 9.45743 3.97257 29.171 1.18012 4.77712 13.114 0 -4.00949e-015 59.4095 1.21965 5.67805 1.6038e-014 -27.2663 0 0.886716 -4.91738e-006 -5.92442 0 -22.1651 0 5.12998 3.07065 -0.0563877 -2.39257 9.45743 3.97257 -33.5043 0.500896 -2.213 -13.6783 4.81139e-014 0 -55.0371 2.71014 -3.47953 -3.20759e-014 -25.0091 0 -1.15375 -1.39074 2.21698 1.6038e-014 -22.1651 0 -1.60403 6.56398 0.0696182 5.01186e-016 9.14143 -2.00475e-015 0.888785 26.9942 0.659272 -1.00237e-015 11.7146 0 -4.23867 -18.3657 1.47645 
0.652388 91.78 3.86531 0.107052 -3.83428 1.53582 7.742 1.6038e-014 0 0.48261 11.2312 1.77604 0 -41.6894 -2.00475e-015 -2.55177 9.86307 -0.787768 1.00237e-015 -40.5157 0 2.85745 -16.2739 5.89437 -7.742 0 0 -0.968404 13.5022 5.10944 0 -41.6894 2.00475e-015 4.13245 5.53072 3.13609 0 -40.5157 0 -6.33342 -13.7246 -12.6956 3.7589e-016 12.9605 0 0.0189075 -3.52231 -0.628195 1.25297e-016 14.8294 0 1.06468 -0.0718814 -0.845941 2.39257 9.45743 3.97257 29.1616 1.18336 4.79117 13.114 -1.6038e-014 -4.00949e-015 59.3902 1.21854 5.71068 0 -27.2663 0 0.877506 -4.91738e-006 -5.91896 0 -22.1651 4.00949e-015 5.10119 3.05164 -0.0547523 -2.39257 9.45743 3.97257 -33.4851 0.496017 -2.19812 -13.6783 3.20759e-014 0 -55.0327 2.70116 -3.46967 -1.6038e-014 -25.0091 -4.00949e-015 -1.14627 -1.39301 2.3099 -3.20759e-014 -22.1651 0 -1.64185 6.6111 0.072555 0 9.14143 2.00475e-015 -0.125144 26.6754 1.12734 -5.01186e-016 11.7146 1.6038e-014 -2.97111 -17.9727 1.3413 
0.635908 91.7784 3.87879 0.110523 -3.84339 1.51908 7.742 0 0 0.487721 11.249 1.76582 2.00475e-015 -41.6894 0 -2.55636 9.863 -0.769356 -1.00237e-015 -40.5157 2.00475e-015 2.86102 -16.2787 5.90184 -7.742 1.6038e-014 0 -0.965987 13.5279 5.12568 0 -41.6894 0 4.13113 5.50986 3.15255 1.00237e-015 -40.5157 0 -6.33784 -13.7148 -12.7064 1.25297e-016 12.9605 0 0.0437164 -3.53892 -0.631645 0 14.8294 0 1.02337 -0.0696228 -0.84481 2.39257 9.45743 3.97257 29.153 1.18703 4.80674 13.114 1.6038e-014 -4.00949e-015 59.3737 1.21731 5.73505 -1.6038e-014 -27.2663 0 0.86714 -4.91738e-006 -5.9018 0 -22.1651 0 5.08638 3.03914 -0.0538123 -2.39257 9.45743 3.97257 -33.4649 0.490196 -2.18015 -13.6783 1.6038e-014 4.00949e-015 -55.0313 2.69531 -3.45028 -1.6038e-014 -25.0091 4.00949e-015 -1.13741 -1.39037 2.40759 0 -22.1651 4.00949e-015 -1.7177 6.66114 0.077738 -5.01186e-016 9.14143 0 -1.23532 25.9369 1.53198 0 11.7146 -8.01898e-015 -1.48282 -17.0385 1.08281 
0.619246 91.7768 3.89238 0.113513 -3.85264 1.50381 7.742 0 0 0.494219 11.267 1.75739 0 -41.6894 -1.00237e-015 -2.56156 9.86309 -0.755244 -1.00237e-015 -40.5157 0 2.86532 -16.2833 5.91057 -7.742 0 2.00475e-015 -0.962648 13.5542 5.14063 -1.00237e-015 -41.6894 0 4.12965 5.4888 3.17005 1.50356e-015 -40.5157 0 -6.34293 -13.7039 -12.7188 1.87945e-016 12.9605 0 0.068466 -3.55595 -0.634484 0 14.8294 2.00475e-015 0.982454 -0.0655556 -0.843617 2.39257 9.45743 3.97257 29.1458 1.19068 4.82197 13.114 1.6038e-014 -4.00949e-015 59.3595 1.21553 5.75339 0 -27.2663 0 0.857385 -4.91739e-006 -5.88313 0 -22.1651 4.00949e-015 5.07768 3.03094 -0.0532411 -2.39257 9.45743 3.97257 -33.4467 0.485229 -2.16489 -13.6783 3.20759e-014 0 -55.0311 2.69156 -3.42895 -1.6038e-014 -25.0091 4.00949e-015 -1.12966 -1.38668 2.50107 0 -22.1651 -4.00949e-015 -1.79186 6.71292 0.0828286 -5.01186e-016 9.14143 -2.00475e-015 -2.23077 25.118 1.85283 -1.25297e-016 11.7146 0 -0.0914912 -16.0011 0.809403 
